<svg width="1003" height="720" viewBox="0 0 1003 720" fill="none" xmlns="http://www.w3.org/2000/svg">
<path d="M1003 113.047L895.055 362.776L1003 612.506H870.6L757.536 488.157L522.493 480.03L598.884 720L425.692 643.26L333.107 488.157H123.518C55.4086 488.157 0 431.902 0 362.776C0 293.653 55.4086 237.396 123.518 237.396H333.107L448.434 69.9686L667.695 0L522.493 237.396H757.536L870.6 113.047H1003ZM887.007 362.776L982.007 131.209L870.6 137.344L757.536 253.894H501.5L641.453 21.0658L454.849 85.0157L333.107 256.961H99.1337C54.2443 256.961 4.66512 321.425 4.66512 362.776C4.66512 404.127 54.2443 465.525 99.1337 465.525L333.107 471.659L432.69 632.727L583.723 700.439L501.5 465.525L757.536 467.059L870.6 591.276H982.007L887.007 362.776Z" fill="black"/>
</svg>
