<svg width="860" height="387" viewBox="0 0 860 387" fill="none" xmlns="http://www.w3.org/2000/svg">
<path d="M860 112.078L767.445 193.5L860 274.922H746.477L649.532 234.379H536.001L637.669 386.5H526.208L285.615 234.379L105.908 234.379C47.5089 234.379 0 216.038 0 193.5C0 170.963 47.5089 152.621 105.908 152.621L285.615 152.621L526.208 0.5H637.669L536.001 152.621H649.532L746.477 112.078H860ZM760.544 193.5L842 118L746.477 120L649.532 158H526.208L625 6.5L526.208 8.5L285.615 159L85 159C46.5106 159 4 180.018 4 193.5C4 206.982 46.5106 227 85 227L285.615 229L526.208 379.5H627L526.208 227.5H649.532L746.477 268H842L760.544 193.5Z" fill="black"/>
</svg>
