<svg width="716" height="822" viewBox="0 0 716 822" fill="none" xmlns="http://www.w3.org/2000/svg">
<path d="M37.1153 695.279V752.215C37.1153 772.688 47.7185 790.432 63.427 800.961C72.8521 807.006 84.0444 810.71 96.0222 810.71H449.463C461.638 810.71 472.83 807.006 482.255 800.961C497.963 790.432 508.37 772.493 508.37 752.215V695.279H37.1153Z" fill="#E51A1A"/>
<path d="M483.629 256.368L491.287 258.708L504.639 262.802C514.85 266.117 526.042 260.268 529.184 250.128L594.767 42.8593C597.909 32.7201 592.214 21.6059 581.807 18.4862L572.186 15.3664H571.99L560.799 11.8567C550.589 8.73691 539.397 14.3895 536.255 24.7257L470.672 231.8C467.528 242.134 473.223 253.053 483.629 256.368Z" fill="#E51A1A"/>
<path d="M11 599.151V675.78C11 686.505 19.836 695.279 30.6356 695.279H514.85C525.846 695.279 534.486 686.505 534.486 675.78V604.416L704.137 68.0121C707.279 57.6779 701.585 46.7587 691.178 43.4459L589.858 11.8584C586.913 10.8834 583.967 10.8834 581.022 11.2734C579.844 11.4684 578.862 11.8584 577.88 12.2483C575.72 12.8333 573.953 14.0032 572.186 15.3681L581.808 18.4879C592.214 21.6076 597.909 32.7218 594.767 42.861L529.184 250.13C526.042 260.269 514.85 266.119 504.64 262.804L491.287 258.709L444.555 406.508H481.273C491.68 406.508 500.123 414.697 500.123 425.032V474.363C500.123 484.697 491.68 493.081 481.273 493.081H417.065L389.771 579.655H30.6356C19.836 579.653 11 588.425 11 599.151Z" fill="#E51A1A"/>
<path d="M127.243 425.028V474.359C127.243 484.694 135.686 493.078 146.093 493.078H481.273C491.68 493.078 500.123 484.694 500.123 474.359V425.028C500.123 414.694 491.68 406.505 481.273 406.505H146.093C135.686 406.506 127.243 414.696 127.243 425.028Z" fill="#E51A1A"/>
<path d="M37.1153 695.279V752.215C37.1153 772.688 47.7185 790.432 63.427 800.961C72.8521 807.006 84.0444 810.71 96.0222 810.71H449.463C461.638 810.71 472.83 807.006 482.255 800.961C497.963 790.432 508.37 772.493 508.37 752.215V695.279H37.1153Z" stroke="black" stroke-width="21.2622" stroke-miterlimit="10" stroke-linecap="round" stroke-linejoin="round"/>
<path d="M483.629 256.368L491.287 258.708L504.639 262.802C514.85 266.117 526.042 260.268 529.184 250.128L594.767 42.8593C597.909 32.7201 592.214 21.6059 581.807 18.4862L572.186 15.3664H571.99L560.799 11.8567C550.589 8.73691 539.397 14.3895 536.255 24.7257L470.672 231.8C467.528 242.134 473.223 253.053 483.629 256.368Z" stroke="black" stroke-width="21.2622" stroke-miterlimit="10" stroke-linecap="round" stroke-linejoin="round"/>
<path d="M11 599.151V675.78C11 686.505 19.836 695.279 30.6356 695.279H514.85C525.846 695.279 534.486 686.505 534.486 675.78V604.416L704.137 68.0121C707.279 57.6779 701.585 46.7587 691.178 43.4459L589.858 11.8584C586.913 10.8834 583.967 10.8834 581.022 11.2734C579.844 11.4684 578.862 11.8584 577.88 12.2483C575.72 12.8333 573.953 14.0032 572.186 15.3681L581.808 18.4879C592.214 21.6076 597.909 32.7218 594.767 42.861L529.184 250.13C526.042 260.269 514.85 266.119 504.64 262.804L491.287 258.709L444.555 406.508H481.273C491.68 406.508 500.123 414.697 500.123 425.032V474.363C500.123 484.697 491.68 493.081 481.273 493.081H417.065L389.771 579.655H30.6356C19.836 579.653 11 588.425 11 599.151Z" stroke="black" stroke-width="21.2622" stroke-miterlimit="10" stroke-linecap="round" stroke-linejoin="round"/>
<path d="M127.243 425.028V474.359C127.243 484.694 135.686 493.078 146.093 493.078H481.273C491.68 493.078 500.123 484.694 500.123 474.359V425.028C500.123 414.694 491.68 406.505 481.273 406.505H146.093C135.686 406.506 127.243 414.696 127.243 425.028Z" stroke="black" stroke-width="21.2622" stroke-miterlimit="10" stroke-linecap="round" stroke-linejoin="round"/>
</svg>
