<svg width="645" height="800" viewBox="0 0 645 800" fill="none" xmlns="http://www.w3.org/2000/svg">
<path d="M460.846 68.1985L460.847 68.1966C466.389 36.6161 497.494 10.5 529.561 10.5H579.988C595.51 10.5 609.522 16.5552 619.677 27.4389C629.832 38.326 634.899 52.7237 633.817 68.204L633.817 68.2066L632.665 84.7571L632.665 84.76C632.25 90.742 630.926 96.5273 628.828 101.994L628.355 103.226L628.202 104.536L610.796 253.217L610.703 254.008L610.731 254.803C610.813 257.152 610.776 259.337 610.553 261.449L559.696 740.913L570.138 742.02L559.696 740.913C556.872 767.542 532.462 789.5 505.687 789.5H373.387H369.421H109.512C82.5937 789.5 54.6192 767.741 47.9925 741.65L11.9483 599.731C11.9481 599.73 11.948 599.73 11.9478 599.729C8.78658 587.27 10.9683 576.742 16.7492 569.309C22.8983 561.403 33.2167 556.712 47.123 557.707L357.146 579.985L366.272 580.641L368.17 571.691L433.879 261.905C433.879 261.905 433.879 261.905 433.879 261.904C439.457 235.612 466.447 213.744 493.326 213.744H567.647C573.967 213.744 579.898 214.968 585.247 217.217L598.121 222.627L599.744 208.758L606.668 149.612L608.707 132.186L592.386 138.624C585.405 141.377 577.968 142.9 570.337 142.9H505.198C489.522 142.9 476.326 136.844 467.484 126.314C458.641 115.785 454.957 101.739 457.666 86.3007C457.666 86.3002 457.667 86.2996 457.667 86.299L460.846 68.1985Z" fill="#4AC52C" stroke="black" stroke-width="21"/>
</svg>
